<?xml version="1.0" encoding="UTF-8" standalone="no"?>
<!-- Created with Inkscape (http://www.inkscape.org/) -->

<svg
   width="210mm"
   height="297mm"
   viewBox="0 0 210 297"
   version="1.1"
   id="svg1"
   xml:space="preserve"
   xmlns="http://www.w3.org/2000/svg"
   xmlns:svg="http://www.w3.org/2000/svg"><defs
     id="defs1" /><g
     id="layer1"><g
       id="g123"><path
         id="path123"
         style="fill:#000000"
         d="M 176.92357 -34.068205 C 173.55719 -34.068205 170.19055 -33.953229 169.89971 -33.72404 C 168.63414 -32.726718 168.58919 -32.449699 168.58919 -25.684737 C 168.58919 -19.304538 168.59165 -19.273132 169.22275 -18.539437 C 169.7423 -17.935428 170.13611 -17.776495 171.40556 -17.659904 C 172.25746 -17.581663 175.17804 -17.482516 177.8956 -17.439246 C 185.52526 -17.317775 185.25794 -17.016541 185.25794 -25.729179 C 185.25794 -32.446227 185.21151 -32.727507 183.94691 -33.72404 C 183.65607 -33.953229 180.28995 -34.068205 176.92357 -34.068205 z M 176.97059 -32.47192 C 181.95611 -32.475362 182.90121 -32.4133 183.25445 -32.060059 C 183.60753 -31.707022 183.67044 -30.757153 183.67044 -25.763285 C 183.67044 -21.541712 183.58053 -19.792081 183.35263 -19.564181 C 182.92862 -19.140178 170.82162 -19.10936 170.56065 -19.531624 C 170.46374 -19.688367 170.38123 -22.559261 170.37823 -25.91108 C 170.37318 -30.810556 170.44375 -32.050298 170.73738 -32.236275 C 170.93826 -32.363504 173.74314 -32.46972 176.97059 -32.47192 z " /><path
         id="path121"
         style="fill:#000000"
         d="M 157.38316 -34.063554 C 153.27575 -34.063554 150.65491 -33.957776 150.25646 -33.776233 C 148.85681 -33.138509 148.74544 -32.536681 148.74544 -25.636678 C 148.74544 -19.408832 148.75791 -19.261641 149.34489 -18.579228 C 149.67462 -18.195902 150.35922 -17.794519 150.86624 -17.687292 C 151.83593 -17.482215 162.99517 -17.58474 164.03288 -17.808215 C 164.36482 -17.879698 164.87035 -18.321547 165.15633 -18.790584 C 165.63479 -19.575282 165.67683 -20.147548 165.67774 -25.953971 L 165.67878 -32.264181 L 164.77909 -33.163867 L 163.8794 -34.063554 L 157.38316 -34.063554 z M 157.27515 -32.479154 C 160.3095 -32.46228 163.317 -32.350121 163.50888 -32.158244 C 163.84443 -31.822686 163.98682 -20.50157 163.66598 -19.665466 C 163.52574 -19.300021 162.70499 -19.246887 157.19299 -19.246887 C 150.98514 -19.246887 150.87513 -19.256477 150.57272 -19.821529 C 150.09507 -20.714039 150.37294 -31.907181 150.88071 -32.228524 C 151.1796 -32.417669 154.24081 -32.496029 157.27515 -32.479154 z " /><path
         id="path119"
         style="fill:#000000"
         d="M 170.45936 -14.484387 L 169.52402 -13.663249 L 168.58919 -12.84211 L 168.58919 -6.1582804 C 168.58919 0.26879224 168.61054 0.55332377 169.15453 1.2448853 C 169.46567 1.6404365 169.97169 2.068869 170.27901 2.1967651 C 170.58634 2.3246611 173.73494 2.4038618 177.276 2.3729818 L 183.71437 2.3166545 L 184.4859 1.4526245 L 185.25794 0.58859456 L 185.25794 -6.1267578 L 185.25794 -12.84211 L 184.3226 -13.663249 L 183.38726 -14.484387 L 176.92357 -14.484387 L 170.45936 -14.484387 z M 176.88636 -12.651941 C 179.99821 -12.6492 183.13142 -12.535703 183.35263 -12.314494 C 183.7629 -11.904223 183.8022 -0.67364874 183.39604 0.085266113 L 183.39656 0.085266113 C 183.13775 0.56886257 182.7816 0.59686279 176.92977 0.59686279 C 173.23969 0.59686279 170.67315 0.49411878 170.57925 0.34209798 C 170.35172 -0.026015918 170.32205 -11.960707 170.54773 -12.325863 C 170.68425 -12.546756 173.77452 -12.654682 176.88636 -12.651941 z " /><path
         id="path117"
         style="fill:#000000"
         d="M 150.61561 -14.484387 L 149.68027 -13.663249 L 148.74544 -12.84211 L 148.74544 -6.095752 L 148.74544 0.65008952 L 149.64461 1.5492594 L 150.5443 2.4489461 L 157.00902 2.4489461 L 163.47374 2.4489461 L 164.50986 1.5539103 L 165.54648 0.65835775 L 165.6302 -5.6244629 C 165.72304 -12.564382 165.63595 -13.081972 164.22719 -13.952637 C 163.42822 -14.446423 162.91472 -14.484387 156.99145 -14.484387 L 150.61561 -14.484387 z M 150.84867 -12.632304 L 157.01987 -12.632304 C 161.46702 -12.632304 163.28008 -12.543289 163.50888 -12.314494 C 163.95928 -11.864092 163.95928 -0.17083291 163.50888 0.2795695 C 163.04555 0.74289145 150.97895 0.73024195 150.67969 0.26613363 C 150.34282 -0.25629113 150.2442 -11.062311 150.56859 -11.9047 L 150.84867 -12.632304 z " /></g><g
       id="g124"><path
         id="path115"
         style="fill:#000000"
         d="M 158.31333 14.390853 C 154.02327 14.333102 151.88925 14.843563 149.01003 16.247587 C 147.16553 17.147037 146.33137 17.777154 144.37362 19.752283 C 140.73508 23.423123 139.22786 26.957581 139.22819 31.817696 C 139.22859 37.702053 142.18979 43.196281 147.08198 46.389933 C 152.30954 49.802524 158.74298 50.165755 164.35534 47.365068 C 166.78168 46.154277 170.54219 42.384143 171.8138 39.887488 C 173.47669 36.622604 173.74805 35.489943 173.74805 31.817696 C 173.74805 28.08264 173.48357 27.019246 171.67273 23.483321 C 170.4719 21.138526 167.27225 17.651538 165.74802 17.026351 C 164.36316 16.458334 164.94769 16.30049 167.5784 16.531291 C 171.03471 16.834526 175.75218 17.856162 178.38963 18.873267 C 180.21619 19.577664 180.90718 20.016732 182.15581 21.265369 C 183.73246 22.842017 185.14661 25.371535 185.43106 27.124443 C 185.56355 27.940856 185.50625 28.060168 184.91068 28.209648 C 184.4437 28.326851 184.18906 28.616796 184.06783 29.168762 C 183.83813 30.214606 183.57925 30.333874 182.61728 29.836422 C 181.66843 29.345751 181.16723 29.537487 180.10735 30.797087 C 179.60788 31.390676 179.4503 31.803339 179.57457 32.191833 C 179.67165 32.495349 179.81254 33.071159 179.88824 33.471342 C 180.00421 34.084595 179.93548 34.198946 179.44951 34.198946 C 178.15998 34.198946 177.84909 34.631372 177.84909 36.425167 C 177.84909 38.217373 178.03155 38.533676 179.23971 38.836906 C 180.04352 39.038648 180.17628 39.515688 179.56888 40.019779 C 179.3506 40.200936 179.17253 40.545557 179.17253 40.785624 C 179.17253 41.349986 180.6282 43.117468 181.25767 43.317253 C 181.65513 43.443402 181.77587 43.863991 181.92378 45.637524 C 182.07265 47.422634 182.23015 47.967546 182.82088 48.736043 C 183.21511 49.248924 183.86257 50.176567 184.25955 50.797416 C 184.94105 51.863242 185.05079 51.926029 186.22326 51.926029 C 187.44201 51.926029 188.42953 51.406095 188.43553 50.760726 C 188.43707 50.601379 188.91229 49.875508 189.49128 49.147904 C 190.4612 47.929031 190.54351 47.696634 190.54651 46.188912 C 190.55008 44.112322 190.85685 43.307707 191.72887 43.088843 C 192.4357 42.911441 193.45699 41.548396 193.45899 40.77994 C 193.45953 40.543097 193.28091 40.200936 193.06263 40.019779 C 192.48929 39.543945 192.57484 39.024841 193.26107 38.815719 C 194.38366 38.47362 194.78281 37.892515 194.77881 36.605518 C 194.77397 35.153331 194.65226 34.938668 193.50033 34.348291 C 192.82502 34.002186 192.65231 33.773829 192.77273 33.385559 C 192.85958 33.10554 192.99295 32.667671 193.06935 32.413009 C 193.24463 31.828623 192.37229 30.397199 191.48805 29.817818 C 190.85762 29.404743 190.7527 29.405306 189.85508 29.831254 C 188.80293 30.330536 188.44456 30.124591 188.43656 29.0158 C 188.43415 28.686958 188.16782 28.342494 187.77872 28.165206 C 187.39456 27.990174 187.06068 27.563211 186.96998 27.130644 C 186.38592 24.346414 185.31579 22.065116 183.84976 20.47782 C 183.20771 19.782666 181.1147 18.386272 179.41437 17.518827 C 176.86365 16.217547 170.74089 15.109488 163.42982 14.625981 C 161.41336 14.492625 159.74336 14.410103 158.31333 14.390853 z M 156.83022 15.989205 C 162.34286 15.993239 167.82981 19.460088 170.40769 24.689449 C 172.77508 29.491817 172.87274 33.737862 170.72085 38.299988 C 169.55529 40.771048 168.5797 42.049921 166.5149 43.811279 C 164.74348 45.322364 163.27787 46.111853 160.86098 46.857088 L 160.86047 46.857088 C 156.8991 48.078552 153.51965 47.764702 149.53868 45.805473 C 145.46995 43.803049 142.2252 39.783788 141.21412 35.494474 C 140.69988 33.31124 140.69875 29.965911 141.21205 27.99519 C 142.89718 21.525548 148.85598 16.616136 155.72848 16.035197 C 156.09536 16.004184 156.46271 15.988936 156.83022 15.989205 z M 157.64051 18.140495 C 157.02218 18.100302 156.39308 18.102354 155.75638 18.148246 C 148.63799 18.661325 143.239 24.044911 142.74323 31.124198 C 142.3529 36.697707 145.984 42.546393 151.06882 44.534233 C 152.7846 45.204994 153.24284 45.183584 153.24284 44.43243 C 153.24284 43.93031 152.90197 43.657759 151.37991 42.943632 C 146.45906 40.634846 143.61605 35.276872 144.50746 29.991968 C 144.95578 27.334069 146.2656 24.836082 148.15788 23.031152 C 150.79385 20.516866 153.43433 19.538789 157.18369 19.687687 C 159.22421 19.768723 159.72622 19.89586 161.53226 20.788912 C 162.74303 21.387612 164.15098 22.361967 164.99148 23.182564 C 170.90142 28.952505 169.22484 39.255709 161.79478 42.829427 C 160.7359 43.338727 159.8068 43.856443 159.7303 43.980261 C 159.49392 44.362732 159.8908 45.047083 160.34887 45.046863 C 161.29275 45.04641 164.06401 43.456912 165.60023 42.034644 C 168.76905 39.100867 169.91159 36.434171 169.91159 31.974792 C 169.91159 28.770193 169.48776 27.093303 168.06416 24.669812 C 165.7759 20.774363 161.96881 18.421845 157.64051 18.140495 z M 156.96613 20.487122 C 152.62276 20.332769 148.2693 23.033061 146.32182 27.194722 C 143.95617 32.250005 146.04482 38.85401 150.90345 41.680143 C 152.42559 42.565533 153.24284 42.603434 153.24284 41.788664 C 153.24284 41.346697 152.94017 41.005356 152.1566 40.564966 C 148.5683 38.548224 146.71761 35.263366 146.94607 31.316951 C 147.09592 28.728277 147.98406 26.73293 149.79086 24.926127 C 151.77626 22.940731 153.61853 22.173189 156.41784 22.166089 C 158.35139 22.161164 158.87833 22.264038 160.17317 22.899894 C 162.17761 23.884214 164.22214 25.763217 165.09587 27.423649 C 165.73614 28.640464 165.807 29.051634 165.809 31.553113 C 165.81064 33.995065 165.72767 34.509118 165.12274 35.798848 C 164.24371 37.672953 163.07137 39.000475 161.13435 40.315885 C 159.57958 41.371705 159.22701 42.012388 160.03106 42.320931 C 161.31412 42.813287 165.03759 39.566961 166.47304 36.704736 C 167.36946 34.917316 167.39857 34.766336 167.39857 31.817696 C 167.39857 28.950463 167.34988 28.673045 166.56089 27.007654 C 166.10039 26.035632 165.22203 24.696111 164.60856 24.030575 C 163.19127 22.492992 159.92448 20.8181 157.83378 20.556885 C 157.54502 20.520808 157.25569 20.497412 156.96613 20.487122 z M 156.46694 23.201685 C 155.21389 23.223219 153.9447 23.461695 152.97878 23.911202 C 151.20586 24.736257 149.73259 26.16798 148.81262 27.96005 C 148.26911 29.018795 148.09719 29.799175 148.00389 31.633728 C 147.88916 33.889644 147.91604 34.025205 148.84983 35.914604 C 149.5851 37.402309 150.11142 38.081024 151.06571 38.77231 C 152.29644 39.663839 154.05797 40.428231 155.36003 40.635763 C 156.51451 40.819773 158.62804 40.493284 159.79955 39.950016 C 161.63995 39.09656 163.3895 37.332114 164.21117 35.501192 C 164.8786 34.014024 164.93518 33.648858 164.83748 31.453377 C 164.74628 29.404638 164.61301 28.825681 163.95588 27.622087 C 163.06217 25.985197 161.5602 24.581446 159.85794 23.792863 C 158.95688 23.375441 157.71998 23.18015 156.46694 23.201685 z M 156.74857 24.701851 C 158.28279 24.741808 159.82484 25.294468 161.1266 26.408724 C 165.02023 29.741522 164.09096 36.146929 159.41404 38.215755 C 155.15092 40.101537 150.46917 37.754755 149.53713 33.265153 C 149.17888 31.539466 149.3869 30.237537 150.29005 28.548128 C 151.65593 25.993153 154.19153 24.635257 156.74857 24.701851 z M 156.28762 26.901717 C 154.32841 26.952318 152.3945 28.124132 151.64759 30.387292 C 150.91202 32.616091 152.06003 35.382855 154.12031 36.345585 C 155.55276 37.014943 157.95666 36.917849 158.98616 36.149215 C 161.15133 34.532658 161.91683 32.336246 161.07957 30.143896 C 160.231 27.921943 158.24683 26.851116 156.28762 26.901717 z M 156.47572 28.332121 C 157.16148 28.339743 157.84292 28.701505 158.61099 29.418359 C 159.64728 30.385555 159.72289 30.54944 159.68689 31.765503 C 159.63943 33.367294 159.28385 34.072901 158.18724 34.741549 C 155.83352 36.176716 152.74219 34.168297 153.07593 31.420821 C 153.1762 30.595386 153.4492 30.144145 154.31616 29.3703 C 155.09995 28.670695 155.78996 28.324498 156.47572 28.332121 z M 186.30077 29.672607 C 186.59336 29.657294 186.83568 29.947792 186.89454 30.551107 C 186.96832 31.307364 187.10831 31.438885 188.16784 31.74845 C 189.04855 32.005767 189.52462 32.022168 189.99667 31.810978 C 190.49703 31.587118 190.72185 31.6127 191.03743 31.928284 C 191.39772 32.288547 191.39095 32.384569 190.97284 32.846574 C 190.52581 33.340568 190.52865 33.414163 191.0333 34.554997 C 191.45666 35.512077 191.70858 35.763905 192.31178 35.832955 C 193.42425 35.960308 193.32173 36.823089 192.14848 37.207031 C 191.3663 37.462995 191.1899 37.678644 190.9315 38.696863 C 190.66238 39.757299 190.6861 39.95039 191.14647 40.463163 C 191.84718 41.243646 191.55579 41.653996 190.55013 41.303422 C 189.9543 41.095713 189.45807 41.134811 188.45723 41.467236 C 187.36714 41.829304 187.11615 42.034452 186.97412 42.681116 C 186.84235 43.281065 186.65645 43.459363 186.1628 43.459363 C 185.63163 43.459363 185.52201 43.328014 185.52201 42.687834 C 185.52201 42.014058 185.36713 41.856787 184.30245 41.450183 C 183.33357 41.080164 182.92565 41.04347 182.3191 41.272416 C 181.44431 41.602608 181.13621 41.328705 181.53776 40.578402 C 181.88034 39.938285 181.49238 37.665965 180.98585 37.345007 C 180.78858 37.220007 180.35137 37.115697 180.01382 37.113497 C 179.04755 37.107118 179.32973 35.964041 180.34093 35.788513 C 180.97535 35.678387 181.18232 35.446144 181.5021 34.486267 C 181.8054 33.575819 181.82288 33.20882 181.58116 32.821769 C 181.13008 32.099469 181.42138 31.851141 182.54596 31.998047 C 183.97944 32.185308 184.95019 31.72063 185.40625 30.629138 C 185.66528 30.009187 186.00819 29.687921 186.30077 29.672607 z M 186.22429 33.14268 C 184.20321 33.139217 182.87669 34.608533 182.87669 36.849947 C 182.87669 37.793092 183.0351 38.12457 183.9035 38.992969 C 184.76806 39.857533 185.10559 40.019779 186.03361 40.019779 C 187.40322 40.019779 188.47986 39.480754 189.23858 38.415226 C 189.71366 37.747968 189.79181 37.376479 189.65922 36.409147 C 189.3852 34.409961 188.05539 33.14578 186.22429 33.14268 z M 186.21189 34.992696 C 187.66759 34.992696 188.45984 36.788574 187.41957 37.729997 C 186.80841 38.28309 185.68614 38.294107 185.14425 37.752218 C 184.23327 36.841239 184.94846 34.992696 186.21189 34.992696 z M 183.68181 42.986007 C 183.69897 42.985431 183.71703 42.988541 183.73607 42.994792 C 183.91797 43.054521 184.10742 43.451568 184.15672 43.876908 C 184.20597 44.302249 184.36283 44.791117 184.50553 44.963664 C 184.92427 45.469988 186.19058 45.63031 187.33637 45.321781 C 188.30777 45.060209 188.40847 44.950131 188.48307 44.069145 C 188.52803 43.537987 188.71406 43.054552 188.89596 42.994792 C 189.13959 42.914741 189.22669 43.379714 189.22669 44.760575 L 189.22669 46.634363 L 186.31628 46.634363 L 183.40534 46.634363 L 183.40534 44.760575 C 183.40534 43.487617 183.47934 42.9928 183.68181 42.986007 z M 186.00725 47.957279 C 186.85612 47.957279 187.62346 48.02991 187.71206 48.11851 C 187.80066 48.207108 187.56639 48.742889 187.19167 49.309135 C 186.388 50.523567 185.89423 50.609282 185.45586 49.610925 C 185.28014 49.210743 184.98505 48.788336 184.80009 48.671965 C 184.08288 48.220731 184.52766 47.957279 186.00725 47.957279 z " /></g><g
       id="g125"><path
         id="path102"
         style="fill:#000000"
         d="M 181.84368 62.26545 C 179.43575 62.2426 178.9311 62.310407 178.57773 62.7047 C 178.16724 63.162713 177.71134 66.845246 176.75975 77.392175 L 176.43161 81.030196 L 174.23019 81.030196 L 172.02826 81.030196 L 172.02826 77.623169 C 172.02826 74.945716 171.94528 74.146718 171.63914 73.892647 C 171.24377 73.564514 170.25421 74.136421 162.23868 79.329008 L 159.98972 80.786283 L 159.92461 77.931677 C 159.84424 74.41556 159.73283 73.886446 159.07143 73.886446 C 158.79002 73.886446 155.87538 75.671173 152.5943 77.852612 L 146.62878 81.819295 L 146.62878 90.244104 C 146.62878 94.87789 146.70864 98.749286 146.80654 98.847196 C 146.90445 98.945102 156.10206 98.994537 167.24561 98.957267 L 187.50638 98.889571 L 187.45006 95.317696 C 187.39135 91.601591 187.1258 86.386364 186.41291 74.944779 C 185.62898 62.362993 185.69585 63.026514 185.17164 62.643205 C 184.84988 62.407925 183.75364 62.28357 181.84368 62.26545 z M 179.78903 64.077226 L 181.92791 64.15319 L 184.06732 64.229154 L 184.23733 66.874988 C 184.33109 68.330197 184.5935 72.199727 184.82024 75.473946 C 185.04697 78.748164 185.36094 84.403633 185.51788 88.041654 C 185.67481 91.679674 185.87006 95.221786 185.95196 95.913009 L 186.1013 97.169779 L 167.32157 97.169779 C 149.65353 97.169779 148.53592 97.142379 148.43538 96.706759 C 148.3581 96.371877 148.38906 84.492849 148.47156 82.836804 C 148.47643 82.739049 150.65376 81.214631 153.30951 79.448897 L 158.13815 76.238241 L 158.20946 79.362081 C 158.28797 82.790096 158.5251 83.338752 159.72979 82.880729 C 160.06588 82.752949 162.51382 81.212863 165.16976 79.458199 C 167.8257 77.703535 170.10217 76.267696 170.22837 76.267696 C 170.35457 76.267696 170.37808 77.495955 170.28108 78.996729 C 170.02248 82.996623 169.90548 82.882279 174.28187 82.882279 C 178.40281 82.882279 177.98016 83.263549 178.2377 79.310404 C 178.32302 78.000716 178.5051 76.036185 178.64181 74.944779 C 178.77853 73.853373 179.09226 70.961784 179.33944 68.518815 L 179.78903 64.077226 z " /></g><g
       id="g126"><path
         id="path100"
         style="fill:#000000"
         d="M 167.92773 109.40366 C 164.00948 109.26324 162.03341 109.67452 158.58205 111.34928 C 155.1999 112.99045 152.31814 115.83081 150.5505 119.26559 C 148.99331 122.29146 148.50298 123.96631 148.30464 126.9354 C 147.6794 136.29465 153.91735 144.84642 162.76784 146.7621 C 164.08317 147.04681 167.11268 147.13926 175.64871 147.15536 C 186.76436 147.1763 186.81031 147.17406 186.986 146.62051 C 187.08302 146.31482 187.0575 145.95975 186.92968 145.83193 C 186.80186 145.7041 184.20086 145.56747 181.14915 145.52807 L 175.60013 145.45624 L 177.18763 144.42891 C 179.3161 143.05153 182.25264 140.00776 183.47872 137.90734 C 186.41392 132.87897 186.83728 126.31087 184.57375 120.92802 C 182.49957 115.99544 178.73567 112.42895 173.49277 110.42892 C 171.36499 109.61723 170.75392 109.50495 167.92773 109.40366 z M 166.12888 110.95809 C 169.01455 110.83904 172.09713 111.48484 174.8746 112.83032 C 177.60485 114.15293 181.15279 117.8001 182.5656 120.73682 C 184.48349 124.72343 184.91235 129.04563 183.7738 132.91695 C 182.46574 137.36462 178.93844 141.74725 175.20378 143.56488 C 174.11237 144.09606 172.27757 144.76895 171.12651 145.05988 C 165.2352 146.54892 159.72696 144.99142 155.19104 140.55369 C 152.37228 137.79595 150.85231 134.89392 150.17585 130.9796 C 149.72463 128.36863 149.79958 126.65183 150.48125 123.96814 C 151.968 118.11495 157.45491 112.71861 163.3275 111.33429 C 164.22704 111.12225 165.16699 110.99777 166.12888 110.95809 z M 167.05595 114.63693 C 165.88001 114.62834 164.69862 114.79072 163.49958 115.12321 C 153.43951 117.91279 150.1037 130.70667 157.57229 137.85567 C 159.36854 139.57505 160.94457 140.5824 163.07583 141.37328 C 164.24882 141.80896 165.00313 141.88278 167.53034 141.81098 C 170.42423 141.72883 170.67451 141.67589 172.64683 140.72526 C 179.14809 137.59173 182.25337 130.34809 179.88824 123.83223 C 178.6079 120.30493 176.3147 117.75139 172.95482 116.11281 C 170.96193 115.14089 169.01586 114.65125 167.05595 114.63693 z M 166.4069 116.27249 C 166.816 116.25704 167.23394 116.26193 167.66263 116.28696 C 170.33712 116.44312 172.2579 117.1728 174.27153 118.79792 C 177.35815 121.28901 178.94385 124.52756 178.93585 128.32292 C 178.92454 133.47261 176.04726 137.69207 171.29807 139.52378 C 169.4473 140.2376 165.84988 140.45176 164.08404 139.95321 C 159.77238 138.7359 156.14397 134.90682 155.35382 130.74034 C 154.53114 126.40237 155.66119 122.81546 158.81873 119.74308 C 161.13356 117.49068 163.54319 116.38064 166.4069 116.27249 z M 167.00169 117.67499 C 164.52631 117.67499 164.05438 117.75399 162.67534 118.40001 C 160.18594 119.56618 158.68474 121.00186 157.54646 123.30462 C 156.57608 125.2677 156.55013 125.39545 156.55013 128.24902 C 156.55013 131.01122 156.59869 131.27577 157.39763 132.89318 C 158.7687 135.66884 160.89426 137.52037 163.82669 138.49336 C 164.89763 138.84874 165.88688 138.95478 167.57323 138.89488 C 169.59559 138.82307 170.09813 138.69767 171.85514 137.82931 C 175.04637 136.25212 176.98439 133.62138 177.62223 130.00033 C 177.99971 127.85733 177.60037 125.63533 176.39957 123.19713 C 175.29292 120.9501 173.94093 119.64672 171.53217 118.50543 C 169.91396 117.73871 169.56701 117.67499 167.00169 117.67499 z M 167.00169 119.26249 C 169.0993 119.26249 169.7223 119.36456 170.76684 119.87899 C 172.64146 120.80224 174.54607 122.65255 175.38878 124.36864 C 176.0145 125.64284 176.12868 126.2062 176.12568 127.99374 C 176.12321 129.3389 175.94769 130.61397 175.64406 131.49172 C 174.98938 133.38435 173.18277 135.32375 171.13632 136.33121 C 168.4607 137.64837 165.34296 137.64163 162.7389 136.31313 C 159.73401 134.78015 157.78795 131.12829 158.08544 127.57981 C 158.37033 124.18165 159.93697 121.73008 162.82469 120.16424 C 164.38476 119.31832 164.64366 119.26249 167.00169 119.26249 z M 166.8384 122.60699 C 164.40618 122.72923 162.05813 124.77335 161.56843 127.40928 C 161.1694 129.55719 162.63394 132.22789 164.73361 133.18153 C 167.28445 134.3401 170.39042 133.35139 171.77298 130.94084 C 172.75944 129.22091 172.79815 127.72801 171.90682 125.81351 C 171.19994 124.29522 169.51564 122.98295 167.88071 122.67623 C 167.53498 122.61137 167.18585 122.58952 166.8384 122.60699 z M 167.00066 124.5092 C 167.18205 124.51077 167.36674 124.52663 167.55411 124.55829 C 168.87246 124.78103 170.30239 125.97854 170.70431 127.19637 C 171.16231 128.58413 170.59001 130.26933 169.32403 131.26124 C 167.76063 132.48617 164.88076 131.91075 163.81326 130.16001 C 162.32055 127.71193 164.27972 124.48559 167.00066 124.5092 z " /></g><g
       id="g127"><path
         id="path92"
         style="fill:#000000"
         d="M 149.18418 156.70155 C 148.31476 156.69855 147.42574 156.80375 147.21065 157.01884 C 146.96955 157.25992 146.89284 161.92994 146.89284 176.42127 C 146.89284 186.91817 146.97713 195.5907 147.07991 195.69348 C 147.1827 195.79673 148.10542 195.84565 149.13043 195.80355 L 150.9944 195.72707 L 151.12669 194.0078 L 151.25898 192.28852 L 167.26628 192.288 L 183.27357 192.28749 L 183.40586 194.00728 L 183.53815 195.72707 L 185.52253 195.72707 L 187.5069 195.72707 L 187.5746 176.57424 C 187.62517 162.30838 187.56421 157.32625 187.33482 157.04985 C 187.1141 156.78385 186.53235 156.70092 185.28223 156.75632 L 183.53815 156.83332 L 183.46529 161.26509 L 183.39294 165.69686 L 174.40382 165.69686 C 166.02426 165.69686 165.41302 165.66545 165.39972 165.23384 C 165.39186 164.97918 165.39221 163.34207 165.39921 161.59582 C 165.40864 159.35401 165.31011 158.2888 165.06383 157.97175 C 164.76708 157.58973 164.03887 157.50474 160.18557 157.40176 C 157.00232 157.3167 155.5355 157.37155 155.2484 157.58625 C 154.9192 157.83245 154.82626 158.63613 154.76936 161.72811 L 154.69857 165.56457 L 152.97878 165.56457 L 151.25898 165.56457 L 151.25485 161.46353 C 151.25277 159.20796 151.15655 157.21366 151.04091 157.03176 C 150.90339 156.81547 150.0536 156.70454 149.18418 156.70155 z M 148.93458 158.10663 C 149.08563 158.10737 149.27103 158.17622 149.41569 158.29628 C 149.74383 158.56846 149.78893 161.16751 149.73453 176.50551 C 149.67812 192.41657 149.6261 194.40578 149.26169 194.47598 C 149.03631 194.51939 148.76842 194.47158 148.66638 194.36953 C 148.353 194.05619 148.4422 158.34344 148.75681 158.149 C 148.80428 158.11967 148.86592 158.10629 148.93458 158.10663 z M 185.51529 158.28853 C 186.0289 158.28853 186.0384 158.57168 186.1106 176.08176 C 186.15115 185.91859 186.08061 194.02288 185.95299 194.20572 C 185.82603 194.38762 185.55814 194.53645 185.35768 194.53645 C 185.0516 194.53645 184.99284 191.6303 184.99284 176.41249 C 184.99284 158.54841 185.00082 158.28853 185.51529 158.28853 z M 159.03215 159.05592 L 159.11432 160.19384 C 159.1875 161.20919 159.26713 161.33124 159.85743 161.33124 C 160.44646 161.33124 160.52803 161.20812 160.60053 160.20676 L 160.68167 159.08228 L 162.12189 159.08228 L 163.56159 159.08228 L 163.56159 162.38957 L 163.56211 165.69686 L 159.99023 165.69686 L 156.41836 165.69686 L 156.41836 162.65415 C 156.41836 160.98066 156.3881 159.52215 156.3517 159.41301 C 156.31532 159.30387 156.90385 159.17921 157.65911 159.13551 L 159.03215 159.05592 z M 167.39857 167.41665 C 182.30036 167.41665 183.27152 167.44484 183.35522 167.87968 C 183.43936 168.3165 182.53814 168.3427 167.39857 168.3427 C 152.259 168.3427 151.3573 168.31654 151.4414 167.87968 C 151.52514 167.44485 152.49678 167.41665 167.39857 167.41665 z M 183.40534 169.92606 L 183.40534 178.79167 L 183.40534 187.65728 L 182.4793 187.65728 L 181.55326 187.65728 L 181.54964 184.01926 C 181.54741 182.01835 181.45811 180.24701 181.3512 180.08255 C 181.22579 179.88962 179.70087 179.74514 177.05431 179.67534 C 174.79812 179.61584 172.80382 179.47525 172.62254 179.36321 C 172.38634 179.21721 172.29284 178.16682 172.29284 175.65594 C 172.29284 173.28389 172.19052 172.05048 171.97555 171.83551 C 171.74043 171.60041 169.20037 171.5177 162.18597 171.5177 L 152.71419 171.5177 L 152.71419 179.58749 C 152.71419 184.31176 152.61303 187.65728 152.4708 187.65728 C 152.33718 187.65728 152.04088 187.72906 151.81192 187.81696 C 151.57909 187.90631 151.33473 187.81799 151.25743 187.61646 C 151.18103 187.41827 151.1503 183.38762 151.1887 178.65938 L 151.25847 170.06249 L 167.33191 169.99427 L 183.40534 169.92606 z M 163.56211 173.07781 L 164.95117 173.15739 L 166.34023 173.23749 L 166.41982 174.33458 C 166.47865 175.14131 166.63046 175.46606 166.99291 175.56086 C 167.70297 175.74655 168.06003 175.26186 168.06003 174.11082 L 168.06003 173.1052 L 169.38294 173.1052 L 170.70534 173.1052 L 170.70534 176.2802 L 170.70586 179.4552 L 167.13398 179.4552 L 163.56211 179.4552 L 163.56211 176.26624 L 163.56211 173.07781 z M 159.09572 173.07884 L 160.46876 173.15842 L 161.8418 173.23749 L 161.91983 175.75103 C 161.96248 177.13348 161.93032 178.53246 161.84852 178.85988 C 161.70312 179.4418 161.61636 179.4552 158.00069 179.4552 L 154.30118 179.4552 L 154.30118 176.2802 L 154.30118 173.1052 L 155.7414 173.1052 L 157.18162 173.1052 L 157.26275 174.22968 C 157.33907 175.28466 157.39296 175.35415 158.13763 175.35415 C 158.88381 175.35415 158.93645 175.28632 159.01355 174.21676 L 159.09572 173.07884 z M 163.56211 181.27989 L 164.95117 181.35947 C 166.28957 181.43652 166.34179 181.46853 166.38209 182.23332 C 166.40509 182.66988 166.43432 183.1759 166.44772 183.3578 C 166.46137 183.54348 166.82063 183.68853 167.26628 183.68853 C 168.03063 183.68853 168.06003 183.64443 168.06003 182.4979 L 168.06003 181.30728 L 169.38294 181.30728 L 170.70534 181.30728 L 170.70534 184.48228 L 170.70586 187.65728 L 167.13398 187.65728 L 163.56211 187.65728 L 163.56211 184.46833 L 163.56211 181.27989 z M 154.30169 181.30728 L 155.7569 181.30728 L 157.21211 181.30728 L 157.21211 182.51496 C 157.21211 183.71774 157.21539 183.72204 158.07201 183.63944 C 158.87913 183.56162 158.93663 183.48722 159.01303 182.43176 L 159.09417 181.30728 L 160.54266 181.30728 L 161.99115 181.30728 L 161.91673 184.41613 L 161.84232 187.52499 L 158.25546 187.59837 C 156.28272 187.63867 154.58608 187.58924 154.48514 187.4883 C 154.38422 187.38737 154.30169 185.9553 154.30169 184.30606 L 154.30169 181.30728 z M 172.55743 181.30728 L 173.99661 181.30728 L 175.4358 181.30728 L 175.38568 182.43176 C 175.33739 183.51594 175.36401 183.55624 176.1293 183.55624 C 176.87397 183.55624 176.9284 183.48671 177.0047 182.43176 L 177.08583 181.30728 L 178.52605 181.30728 L 179.96628 181.30728 L 179.96628 184.48228 L 179.96576 187.65728 L 176.26159 187.65728 L 172.55743 187.65728 L 172.55743 184.48228 L 172.55743 181.30728 z M 167.41407 189.50936 C 183.22935 189.50936 183.40534 189.5152 183.40534 190.03853 C 183.40534 190.5617 183.22935 190.5677 167.41407 190.5677 C 157.03835 190.5677 151.36507 190.47478 151.25898 190.30311 C 151.16908 190.15759 151.16908 189.91947 151.25898 189.77395 C 151.36507 189.60226 157.03835 189.50936 167.41407 189.50936 z " /></g><g
       id="g128"><path
         id="path80"
         style="fill:#000000"
         d="M 185.50496 204.81385 L 177.64239 204.90067 C 168.87593 204.99741 169.24135 204.92218 167.75565 206.94241 L 166.9557 208.0302 L 159.83469 208.0302 L 152.71368 208.0302 L 152.71368 206.9269 C 152.71368 205.31937 152.17817 204.8552 150.32106 204.8552 C 149.22122 204.8552 148.63187 204.99432 148.17907 205.36111 L 147.5543 205.86702 L 147.54087 223.0205 L 147.52743 240.17397 L 148.12429 240.77083 C 148.69279 241.33934 148.9176 241.3677 152.86044 241.3677 C 158.14015 241.3677 159.09151 240.97449 159.58302 238.58957 L 159.74684 237.79582 L 167.08076 237.71521 C 173.95799 237.63976 174.4245 237.66501 174.56402 238.1126 C 175.47107 241.02239 175.87587 241.21551 181.27627 241.32067 C 185.42882 241.40154 185.68498 241.37711 186.24961 240.84731 L 186.84493 240.28869 L 186.84493 223.22152 L 186.84493 206.15434 L 186.1752 205.4841 L 185.50496 204.81385 z M 150.34586 206.4427 L 151.12204 206.4427 L 151.19025 221.98697 L 151.25898 237.53124 L 154.56318 237.66353 C 157.33962 237.77469 157.88033 237.86473 157.94953 238.2268 C 158.08427 238.93195 157.26244 239.51561 156.13466 239.51561 C 155.56297 239.51561 155.09544 239.63468 155.09544 239.7802 L 155.09493 239.7802 C 155.09493 239.92572 154.96895 240.04478 154.81484 240.04478 C 154.66069 240.04478 154.60016 239.93934 154.67996 239.81017 C 154.76129 239.67854 153.67342 239.59133 152.2057 239.61173 C 150.7651 239.63176 149.51087 239.57321 149.41827 239.48151 C 149.19384 239.25945 149.17153 207.0878 149.39553 206.72537 C 149.49157 206.56997 149.91905 206.4427 150.34586 206.4427 z M 183.40534 206.4427 L 184.33345 206.4427 L 185.26156 206.4427 L 185.19335 223.0453 L 185.12513 239.6479 L 181.68555 239.68718 C 179.79378 239.70867 178.00784 239.66901 177.7168 239.59881 C 177.06598 239.44189 176.52618 238.78125 176.52618 238.14205 C 176.52618 237.70606 176.81845 237.66353 179.80556 237.66353 C 182.55149 237.66353 183.11066 237.59543 183.24515 237.24495 C 183.33345 237.01477 183.40534 229.99007 183.40534 221.63453 L 183.40534 206.4427 z M 175.97117 206.57499 L 181.68555 206.57499 L 181.68555 207.23645 L 181.68555 207.8979 L 175.53399 207.96922 C 170.41211 208.02835 169.38243 207.97857 169.38243 207.67104 C 169.38243 206.69414 170.09642 206.57499 175.97117 206.57499 z M 165.30464 209.64302 C 165.79606 209.65641 165.9425 209.76404 166.03586 210.00734 C 166.29927 210.69379 166.00945 210.94075 164.93515 210.94475 C 163.53215 210.95036 162.66393 211.47095 162.50274 212.40306 L 162.36632 213.18957 L 157.72267 213.2614 C 155.16848 213.30102 152.99635 213.25159 152.89609 213.15133 C 152.7958 213.05107 152.71419 212.27421 152.71419 211.42534 L 152.71419 209.88228 L 157.41055 209.87504 C 159.99355 209.87101 162.95149 209.79723 163.98431 209.71123 C 164.59053 209.66074 165.00979 209.63498 165.30464 209.64302 z M 167.66315 209.74999 L 174.49788 209.74999 C 181.20187 209.74999 181.78675 209.82014 181.66901 210.60988 C 181.64191 210.79178 181.60453 211.47639 181.58633 212.13124 L 181.55378 213.32186 L 176.65898 213.32186 L 171.76419 213.32186 L 171.76419 212.56067 C 171.76419 211.53864 171.12721 211.07348 169.81134 211.13388 C 168.05569 211.21447 167.48364 211.00986 167.57944 210.336 L 167.66315 209.74999 z M 167.43733 212.58444 L 170.04388 212.6604 L 170.04388 215.8354 L 170.04388 219.0104 L 167.06732 219.08534 L 164.09128 219.16027 L 164.09128 216.14133 C 164.09128 213.8789 164.18364 213.04542 164.46076 212.81543 C 164.70117 212.6159 165.74251 212.53504 167.43733 212.58444 z M 171.76419 214.90936 L 176.65898 214.90936 L 181.55378 214.90936 L 181.55378 215.70311 L 181.55378 216.49686 L 176.65898 216.49686 L 171.76419 216.49686 L 171.76419 215.70311 L 171.76419 214.90936 z M 152.84648 215.04165 L 157.60898 215.04165 L 162.37148 215.04165 L 162.4552 215.76926 L 162.53892 216.49686 L 157.60898 216.49686 L 152.67905 216.49686 L 152.76277 215.76926 L 152.84648 215.04165 z M 181.54034 218.07248 L 181.69692 218.69673 C 181.78302 219.03996 181.79097 222.16776 181.71397 225.64773 C 181.63697 229.1277 181.56959 232.89772 181.56359 234.02551 L 181.55378 236.07603 L 180.36263 236.07603 L 179.17253 236.07603 L 179.17253 234.93191 C 179.17253 234.07767 179.0167 233.64151 178.55964 233.21212 C 177.95135 232.64066 177.87528 232.63658 167.11641 232.64058 C 160.92132 232.64289 156.11945 232.74978 155.89746 232.89018 C 155.67225 233.03262 155.45019 233.7249 155.36829 234.53969 L 155.22773 235.94374 L 154.10067 236.02539 C 153.3509 236.0796 152.92918 235.99042 152.84028 235.75874 C 152.76658 235.56722 152.7378 231.5418 152.7762 226.81355 L 152.84648 218.21665 L 157.60898 218.21665 L 162.37148 218.21665 L 162.50378 219.27499 C 162.62028 220.20697 162.74662 220.36885 163.56211 220.63098 C 164.36675 220.88962 164.4988 221.05369 164.5698 221.88103 C 164.62928 222.57426 164.85895 222.98066 165.41419 223.37603 C 165.9796 223.77864 166.19747 224.17416 166.25807 224.90462 C 166.32511 225.71303 166.45354 225.90567 166.97172 225.97897 C 167.72737 226.08582 168.05089 225.65284 168.05589 224.52635 C 168.05923 223.83917 168.19977 223.64381 168.85378 223.41582 C 169.57893 223.16303 169.64753 223.0351 169.64753 221.93477 C 169.64753 220.77828 169.6781 220.7302 170.42526 220.7302 C 171.31513 220.7302 171.54 220.46308 171.75282 219.152 L 171.90475 218.21665 L 176.72255 218.14482 L 181.54034 218.07248 z M 167.01358 220.67904 C 167.4244 220.66649 167.82676 220.89629 167.95822 221.42008 C 168.07283 221.87675 168.00759 222.18831 167.76495 222.34198 C 167.32984 222.61753 167.30305 222.61688 166.53816 222.30943 C 166.21074 222.17782 165.94284 221.95733 165.94284 221.81902 C 165.94284 221.11214 166.48538 220.69517 167.01358 220.67904 z M 156.95889 234.21774 L 167.20581 234.28699 L 177.45273 234.35624 L 177.53542 235.21613 L 177.61862 236.07603 L 167.29883 236.07603 C 160.33431 236.07603 156.92256 235.98516 156.80593 235.79646 C 156.71063 235.64266 156.70641 235.22456 156.79611 234.86732 L 156.95889 234.21774 z " /></g><g
       id="g129"><path
         id="path68"
         style="fill:#000000"
         d="M 166.98361 251.84303 C 166.9554 251.84296 166.93304 251.84726 166.91694 251.85646 C 166.74526 251.95457 165.59227 252.6955 164.35534 253.50287 C 161.54325 255.33838 158.94882 256.47669 155.40912 257.4277 C 153.12535 258.04127 152.61109 258.27441 152.41809 258.78162 C 152.05481 259.73632 152.15768 268.23329 152.55968 270.47186 C 153.37583 275.01679 155.72117 279.1673 159.34531 282.47992 C 161.2354 284.20754 163.92775 286.03408 165.54648 286.68689 C 166.95603 287.25534 167.51706 287.24122 169.01036 286.60111 C 173.54799 284.65606 178.55364 279.58301 180.48769 274.96978 C 181.92465 271.54225 182.08294 270.47574 182.08294 264.19938 L 182.08294 258.3217 L 180.95846 258.0442 C 176.44702 256.93102 172.02357 255.02349 168.90132 252.84503 C 168.06781 252.26348 167.25622 251.84361 166.98361 251.84303 z M 167.17584 253.77831 L 168.59694 254.73484 C 171.34082 256.58134 178.07026 259.35936 179.79884 259.35936 L 180.49544 259.35936 L 180.49544 264.32598 C 180.49544 268.52915 180.41149 269.59465 179.94974 271.26096 C 178.40997 276.81739 174.48669 281.63264 169.07753 284.60588 C 168.12977 285.12684 167.2452 285.54668 167.11176 285.53968 C 166.97833 285.53234 165.9985 285.02379 164.93464 284.409 C 159.45939 281.24486 155.92924 276.78097 154.53217 271.25631 C 154.10594 269.57099 154.03635 268.4726 154.09705 264.40505 L 154.16888 259.56142 L 157.02762 258.69584 C 160.12103 257.75913 164.25415 255.87652 166.05188 254.58549 L 167.17584 253.77831 z M 174.29944 263.85728 C 174.13839 263.85728 172.10474 265.76228 169.77982 268.09061 C 167.4549 270.41894 165.46049 272.32395 165.34805 272.32395 C 165.23561 272.32395 164.21135 271.43303 163.0717 270.34422 L 160.99948 268.36501 L 160.3623 269.05076 L 159.72513 269.73651 L 162.47639 272.34152 C 164.59617 274.34868 165.32476 274.89387 165.65139 274.71605 C 165.88453 274.58912 168.20611 272.33087 170.81025 269.69775 C 175.44823 265.00815 175.53549 264.89944 175.0689 264.38386 C 174.80692 264.09437 174.4605 263.85728 174.29944 263.85728 z " /></g><g
       id="g130"><path
         id="path65"
         style="fill:#000000"
         d="M 167.2363 297.45936 C 164.40455 297.45936 163.94322 297.75727 163.55694 299.83596 C 163.22701 301.61135 162.94957 301.909 161.43872 302.10507 C 160.42683 302.23639 160.15591 302.16516 159.57786 301.6157 C 158.75145 300.83016 157.92283 300.36978 157.33355 300.36978 C 157.09019 300.36978 156.01062 301.22358 154.93473 302.26682 C 152.65151 304.48074 152.55745 304.88477 153.90068 306.71461 L 154.82311 307.97087 L 154.40763 309.18991 C 154.03436 310.28539 153.89461 310.42367 153.0227 310.56037 C 150.06195 311.02454 149.81339 311.34645 149.80739 314.72343 C 149.80226 317.7668 150.00392 318.00203 153.0413 318.49012 C 154.84757 318.78037 155.1097 320.55497 153.63197 322.49091 C 152.96851 323.36008 152.74467 323.87849 152.8594 324.27943 C 152.94824 324.58991 153.83075 325.64742 154.82052 326.62968 C 156.9178 328.71106 157.499 328.83922 159.30242 327.61721 C 160.63716 326.71278 161.07578 326.66063 162.32859 327.25806 C 163.1481 327.64886 163.24308 327.814 163.37349 329.07759 C 163.5285 330.57949 163.97091 331.51004 164.61269 331.68415 C 164.83514 331.74446 166.10958 331.80781 167.44508 331.82471 C 169.74497 331.85378 169.90132 331.81988 170.39993 331.18599 C 170.68947 330.81791 171.00423 330.01423 171.09963 329.40005 C 171.37073 327.6558 171.4649 327.45797 172.17812 327.133 C 173.22498 326.65602 173.91936 326.76802 175.20378 327.62186 C 176.77967 328.66943 177.67844 328.6497 178.73586 327.54435 C 180.31184 325.89693 181.54716 324.31421 181.55016 323.93733 C 181.55202 323.72969 181.1344 322.95112 180.62205 322.20721 C 179.71402 320.88879 179.69933 320.82839 180.05103 319.81252 C 180.38879 318.83692 180.50339 318.75186 181.84265 318.48134 C 184.63391 317.91754 184.83888 317.59526 184.6895 314.01236 C 184.57294 311.21659 184.39761 311.02521 181.52794 310.56709 C 179.82142 310.29466 179.46687 308.39684 180.76468 306.48155 C 181.1986 305.84119 181.55268 305.12682 181.55068 304.89405 C 181.54907 304.66129 180.76499 303.60761 179.80866 302.55259 C 178.23487 300.81637 177.97495 300.63436 177.06981 300.63436 C 176.357 300.63436 175.7834 300.86234 175.07148 301.42811 C 173.93851 302.32848 173.91568 302.3332 172.52125 301.91542 C 171.45914 301.59721 171.45286 301.5866 170.82213 298.97452 C 170.53124 297.76985 169.79642 297.45936 167.2363 297.45936 z M 167.41304 299.04686 C 169.26875 299.04686 169.13259 298.9013 169.63616 301.42811 L 169.92606 302.88332 L 171.71303 303.47863 C 174.02926 304.25039 174.40387 304.23129 175.60065 303.2802 C 176.15 302.84364 176.80649 302.48645 177.05999 302.48645 C 177.50039 302.48645 179.44466 304.58554 179.42936 305.04443 C 179.42531 305.16546 179.06813 305.73215 178.63561 306.30378 C 178.2031 306.8754 177.84961 307.55923 177.84961 307.82307 C 177.84961 308.08691 178.22016 309.13191 178.67333 310.14541 C 179.49202 311.97636 179.50512 311.9893 180.72385 312.16596 C 182.7737 312.46309 182.87669 312.58179 182.87669 314.64901 C 182.87669 316.68057 182.95261 316.60244 180.66132 316.92639 C 179.3815 317.10733 179.3666 317.1209 178.6108 318.78778 C 177.6585 320.888 177.66113 321.22717 178.64284 322.46249 C 179.0794 323.01184 179.43659 323.61131 179.43659 323.79471 C 179.43659 324.25792 177.33458 326.56353 176.9122 326.56353 C 176.72241 326.56353 176.23059 326.28353 175.81924 325.94135 C 174.35124 324.72017 174.12742 324.68761 172.14143 325.40598 C 171.13336 325.77062 170.21966 326.15591 170.11106 326.26226 C 170.00246 326.36861 169.78326 327.16475 169.62375 328.03114 C 169.46425 328.89753 169.21141 329.75507 169.06152 329.93697 C 168.66933 330.41286 165.83008 330.37218 165.42556 329.88477 C 165.2507 329.67407 165.01791 328.84052 164.90828 328.03269 C 164.79866 327.22486 164.62971 326.48495 164.53311 326.38835 C 164.26535 326.1206 160.84521 324.71145 160.46307 324.71145 C 160.27823 324.71145 159.58106 325.12817 158.91381 325.63749 C 158.24656 326.14682 157.57633 326.56353 157.4245 326.56353 C 157.11394 326.56353 154.83086 324.25635 154.83086 323.9425 C 154.83086 323.83125 155.26865 323.17797 155.80393 322.49091 L 156.77699 321.24189 L 156.19408 319.43167 C 155.87345 318.43617 155.43227 317.47359 155.21378 317.29226 C 154.99529 317.11092 154.07566 316.82953 153.16998 316.66749 L 151.52357 316.37294 L 151.52357 314.52499 L 151.52357 312.67704 L 153.12864 312.39023 C 154.01144 312.23228 154.86228 312.02338 155.01948 311.92618 C 155.17669 311.82903 155.6275 310.86546 156.02148 309.78523 L 156.73772 307.82152 L 155.92847 306.64485 C 155.48331 305.99784 155.08408 305.3579 155.04118 305.2222 C 154.92144 304.8439 157.02668 302.4862 157.47669 302.4942 C 157.69498 302.49825 158.34116 302.85544 158.91278 303.28795 C 160.18621 304.25148 160.94727 304.27135 163.12751 303.39854 L 164.81526 302.72261 L 164.99045 301.23278 C 165.08675 300.41344 165.29558 299.58665 165.4545 299.39516 C 165.6375 299.17466 166.3556 299.04686 167.41304 299.04686 z M 166.72884 307.88457 C 165.11108 307.96837 163.50692 308.64907 162.26348 310.06169 C 160.51635 312.04654 160.00527 314.3003 160.7938 316.54244 C 161.66109 319.00853 162.88253 320.14672 165.67878 321.09565 C 166.40148 321.3409 168.11466 321.27664 169.21965 320.96284 C 172.08749 320.14841 173.91342 317.66264 173.91342 314.57356 C 173.91342 310.40638 170.28792 307.7002 166.72884 307.88457 z M 167.6833 309.66379 C 170.37545 309.83429 172.60792 312.24691 172.14401 315.34044 C 171.93066 316.76312 171.14197 318.00339 169.93278 318.81827 C 169.24547 319.28145 168.66847 319.41923 167.42544 319.41823 C 164.07822 319.41485 161.99774 317.25821 162.30069 314.10538 C 162.45943 312.45334 163.35655 311.15021 164.92068 310.29837 C 165.83738 309.79913 166.78592 309.60695 167.6833 309.66379 z " /></g></g></svg>
